<?xml version="1.0" encoding="UTF-8" standalone="no"?><!DOCTYPE svg PUBLIC "-//W3C//DTD SVG 1.1//EN" "http://www.w3.org/Graphics/SVG/1.1/DTD/svg11.dtd"><svg width="100%" height="100%" viewBox="0 0 1917 1917" version="1.1" xmlns="http://www.w3.org/2000/svg" xmlns:xlink="http://www.w3.org/1999/xlink" xml:space="preserve" xmlns:serif="http://www.serif.com/" style="fill-rule:evenodd;clip-rule:evenodd;stroke-linejoin:round;stroke-miterlimit:2;"><rect x="0" y="0" width="1916.67" height="1916.67" style="fill:#4a0d66;"/><path d="M615.404,985.192c0,0 214.358,-37.951 284.531,-208.368c0,0 1248.11,255.642 511.32,921.423c0,0 273.42,-257.43 120.712,-463.385c0,0 85.225,255.66 -248.542,427.865c0,0 723.872,-514.184 -668.021,-677.535Z" style="fill:#fff;fill-rule:nonzero;"/><path d="M1299.26,891.945c87.292,43.177 148.403,85.608 184.098,113.473c15.711,-446.841 -304.688,-696.65 -304.688,-696.65c-9.305,28.646 -37.274,60.591 -77.222,75.226c-39.948,14.653 -63.924,62.587 -63.924,62.587c156.58,130.225 231.788,289.219 261.736,445.364Z" style="fill:#fff;fill-rule:nonzero;"/><path d="M866.811,808.473c18.906,-28.246 24.201,-47.639 24.201,-47.639c82.5,14.653 156.528,33.976 222.465,55.591c-136.753,-389.914 -391.076,-603.316 -391.076,-603.316c-7.101,20.434 -81.667,57.708 -132.274,79.913c-50.591,22.187 -37.275,116.285 -37.275,116.285c139.063,114.913 240.243,255.572 313.959,399.166Z" style="fill:#fff;fill-rule:nonzero;"/><path d="M1390.01,1240.38c-17.205,192.378 -131.441,396.614 -131.441,396.614c80.66,-122.69 135.798,-237.881 171.441,-345.208c-10,-18.142 -23.507,-35.26 -40,-51.406Z" style="fill:#fff;fill-rule:nonzero;"/><path d="M1375.04,1226.72c-18.82,-16.163 -40.573,-31.32 -64.688,-45.504c-20.035,206.979 -89.062,362.57 -89.062,362.57c39.93,-45.278 70.555,-118.507 70.555,-118.507c1.337,51.927 -41.285,154.462 -41.285,154.462c73.299,-117.761 108.368,-260.868 124.48,-353.021Z" style="fill:#fff;fill-rule:nonzero;"/><path d="M941.863,1629.74c-44.375,-23.907 -108.733,-49.341 -240.99,-151.771c100.104,75.364 267.257,123.524 267.257,123.524c-369.028,-187.309 -449.479,-357.118 -449.479,-357.118c-35.521,-1.146 -56.927,21.389 -70.99,29.115c-14.08,7.708 -52.448,7.048 -52.448,7.048c140.643,226.754 546.65,349.202 546.65,349.202Z" style="fill:#fff;fill-rule:nonzero;"/><path d="M776.776,1019.34c-122.604,-20.312 -212.656,-28.159 -212.656,-28.159c49.01,-12.309 90.711,-27.275 126.371,-43.56c-172.552,-125.677 -344.479,-156.614 -344.479,-156.614c0,0 -31.962,10.642 -36.406,63.924c-4.41,53.246 -45.261,60.364 -45.261,60.364c644.462,172.205 741.215,703.038 741.215,703.038c-43.94,-239.67 -137.152,-392.795 -137.152,-392.795c98.541,101.198 166.441,358.195 166.441,358.195c-21.858,-265.643 -132.014,-444.757 -258.073,-564.393Z" style="fill:#fff;fill-rule:nonzero;"/><path d="M969.623,1057.74c92.795,286.267 94.549,528.628 94.549,528.628c68.663,-133.125 50.59,-439.392 50.59,-439.392c63.906,125.156 55.92,466.042 55.92,466.042c32.778,-179.132 34.045,-342.934 15.243,-490.365c-68.055,-26.076 -142.847,-47.5 -216.302,-64.913Z" style="fill:#fff;fill-rule:nonzero;"/></svg>