<svg xmlns="http://www.w3.org/2000/svg" width="88px" height="153px" viewBox="0 0 88 153" version="1.1"><g id="bg_squares_blue" stroke="none" stroke-width="1" fill="none" fill-rule="evenodd"><path d="M80,0 L88,0 L88,8 L80,8 L80,0 Z M88,16 L88,24 L80,24 L80,16 L88,16 Z M64,0 L72,0 L72,8 L64,8 L64,0 Z M88,32 L88,40 L80,40 L80,32 L88,32 Z M88,48 L88,56 L80,56 L80,48 L88,48 Z M88,64 L88,72 L80,72 L80,64 L88,64 Z M88,80 L88,88 L80,88 L80,80 L88,80 Z M88,96 L88,104 L80,104 L80,96 L88,96 Z M88,112 L88,120 L80,120 L80,112 L88,112 Z M55.9473684,96 L56,96 L56,96.091954 L55.9473684,96 Z M88,128 L88,136 L80,136 L80,128 L88,128 Z M83.4210526,144 L88,144 L88,152 L83.4210526,144 Z M65.1052632,112 L72,112 L72,120 L69.6842105,120 L65.1052632,112 Z M51.3684211,88 L48,82.1149425 L48,80 L56,80 L56,88 L51.3684211,88 Z M37.6315789,64 L40,64 L40,68.137931 L37.6315789,64 Z M48,0 L56,0 L56,8 L48,8 L48,0 Z M32,0 L40,0 L40,8 L32,8 L32,0 Z M16,0 L24,0 L24,8 L16,8 L16,0 Z M8,0 L8,8 L5.57894737,8 L1,0 L8,0 Z M19.3157895,32 L24,32 L24,40 L23.8947368,40 L19.3157895,32 Z M33.0526316,56 L32,54.1609195 L32,48 L40,48 L40,56 L33.0526316,56 Z M64,16 L72,16 L72,24 L64,24 L64,16 Z M64,32 L72,32 L72,40 L64,40 L64,32 Z M64,48 L72,48 L72,56 L64,56 L64,48 Z M64,64 L72,64 L72,72 L64,72 L64,64 Z M64,80 L72,80 L72,88 L64,88 L64,80 Z M64,96 L72,96 L72,104 L64,104 L64,96 Z M48,16 L56,16 L56,24 L48,24 L48,16 Z M32,16 L40,16 L40,24 L32,24 L32,16 Z M16,16 L24,16 L24,24 L16,24 L16,16 Z M48,32 L56,32 L56,40 L48,40 L48,32 Z M48,48 L56,48 L56,56 L48,56 L48,48 Z M48,64 L56,64 L56,72 L48,72 L48,64 Z M32,32 L40,32 L40,40 L32,40 L32,32 Z" id="Combined-Shape" fill="#FEE300" fill-rule="nonzero"></path></g></svg>