<svg xmlns="http://www.w3.org/2000/svg" width="342px" height="165px" viewBox="0 0 342 165" version="1.1"><g id="bg_columns_cyan" stroke="none" stroke-width="1" fill="none" fill-rule="evenodd"><path d="M286,127.568371 L286,166 L285,166 L285,127.027831 L284.986834,127.020714 L285,127.012885 L285,98.5683714 L267,108.298101 L267,166 L266,166 L266,108.298101 L248,98.5683714 L248,166 L247,166 L247,98.0278308 L246.986834,98.0207139 L247,98.0128853 L247,50.2981011 L229,40.5683714 L229,69.0128853 L229.013166,69.0207139 L229,69.0278308 L229,166 L228,166 L228,69.5683714 L210,79.2981011 L210,127.012885 L210.013166,127.020714 L210,127.027831 L210,166 L209,166 L209,127.568371 L191,137.298101 L191,166 L190,166 L190,137.298101 L172,127.568371 L172,166 L171,166 L171,127.027831 L170.986834,127.020714 L171,127.012885 L171,98.5683714 L153,108.298101 L153,166 L152,166 L152,108.298101 L134,98.5683714 L134,166 L133,166 L133,98.0278308 L132.986834,98.0207139 L133,98.0128853 L133,50.2981011 L115,40.5683714 L115,69.0128853 L115.013166,69.0207139 L115,69.0278308 L115,166 L114,166 L114,69.5683714 L96,79.2981011 L96,127.012885 L96.0131663,127.020714 L96,127.027831 L96,166 L95,166 L95,127.568371 L77,137.298101 L77,166 L76,166 L76,137.298101 L58,127.568371 L58,166 L57,166 L57,127.027831 L56.9868337,127.020714 L57,127.012885 L57,98.5683714 L39,108.298101 L39,166 L38,166 L38,108.298101 L20,98.5683714 L20,166 L19,166 L19,98.0278308 L18.9868337,98.0207139 L19,98.0128853 L19,50.2981011 L1,40.5683714 L1,166 L5.15143483e-14,166 L5.15143483e-14,40.0278308 L-0.013166288,40.0207139 L5.15143483e-14,40.0128853 L5.15143483e-14,40 L0.0216707614,40 L19.5,28.4182907 L38,39.4182907 L38,12.0278308 L37.9868337,12.0207139 L38,12.0128853 L38,12 L38.0216708,12 L57.5,0.418290723 L76.9783292,12 L77,12 L77,12.0128853 L77.0131663,12.0207139 L77,12.0278308 L77,68.4182907 L95.5,57.4182907 L114,68.4182907 L114,40.0278308 L113.986834,40.0207139 L114,40.0128853 L114,40 L114.021671,40 L133.5,28.4182907 L152,39.4182907 L152,12.0278308 L151.986834,12.0207139 L152,12.0128853 L152,12 L152.021671,12 L171.5,0.418290723 L190.978329,12 L191,12 L191,12.0128853 L191.013166,12.0207139 L191,12.0278308 L191,68.4182907 L209.5,57.4182907 L228,68.4182907 L228,40.0278308 L227.986834,40.0207139 L228,40.0128853 L228,40 L228.021671,40 L247.5,28.4182907 L266,39.4182907 L266,12.0278308 L265.986834,12.0207139 L266,12.0128853 L266,12 L266.021671,12 L285.5,0.418290723 L304.978329,12 L305,12 L305,12.0128853 L305.013166,12.0207139 L305,12.0278308 L305,68.4182907 L323.5,57.4182907 L343.013166,69.0207139 L342,69.5683714 L342,166 L341,166 L341,70.1089119 L324,79.2981011 L324,127.012885 L324.013166,127.020714 L324,127.027831 L324,166 L323,166 L323,127.568371 L305,137.298101 L305,166 L304,166 L304,137.298101 L286,127.568371 Z M286,126.418291 L304,115.715588 L304,69.0278308 L303.986834,69.0207139 L304,69.0128853 L304,12.5683714 L286,22.2981011 L286,98.0128853 L286.013166,98.0207139 L286,98.0278308 L286,126.418291 Z M285,22.2981011 L267,12.5683714 L267,40.0128853 L267.013166,40.0207139 L267,40.0278308 L267,86.715588 L285,97.4182907 L285,22.2981011 Z M323,79.2981011 L305,69.5683714 L305,115.715588 L323,126.418291 L323,79.2981011 Z M266,40.5683714 L248,50.2981011 L248,97.4182907 L266,86.715588 L266,40.5683714 Z M172,126.418291 L190,115.715588 L190,69.0278308 L189.986834,69.0207139 L190,69.0128853 L190,12.5683714 L172,22.2981011 L172,98.0128853 L172.013166,98.0207139 L172,98.0278308 L172,126.418291 Z M171,22.2981011 L153,12.5683714 L153,40.0128853 L153.013166,40.0207139 L153,40.0278308 L153,86.715588 L171,97.4182907 L171,22.2981011 Z M209,126.418291 L209,79.2981011 L191,69.5683714 L191,115.715588 L209,126.418291 Z M152,86.715588 L152,40.5683714 L134,50.2981011 L134,97.4182907 L152,86.715588 Z M58,98.0278308 L58,126.418291 L76,115.715588 L76,69.0278308 L75.9868337,69.0207139 L76,69.0128853 L76,12.5683714 L58,22.2981011 L58,98.0128853 L58.0131663,98.0207139 L58,98.0278308 Z M57,97.4182907 L57,22.2981011 L39,12.5683714 L39,40.0128853 L39.0131663,40.0207139 L39,40.0278308 L39,86.715588 L57,97.4182907 Z M95,79.2981011 L77,69.5683714 L77,115.715588 L95,126.418291 L95,79.2981011 Z M38,40.5683714 L20,50.2981011 L20,97.4182907 L38,86.715588 L38,40.5683714 Z M2.01316629,39.9792861 L19.5,49.4316286 L36.9868337,39.9792861 L19.5,29.5817093 L2.01316629,39.9792861 Z M78.0131663,68.9792861 L95.5,78.4316286 L112.986834,68.9792861 L95.5,58.5817093 L78.0131663,68.9792861 Z M76.5,136.431629 L93.9868337,126.979286 L76.5,116.581709 L59.0131663,126.979286 L76.5,136.431629 Z M40.0131663,11.9792861 L57.5,21.4316286 L74.9868337,11.9792861 L57.5,1.58170928 L40.0131663,11.9792861 Z M38.5,107.431629 L55.9868337,97.9792861 L38.5,87.5817093 L21.0131663,97.9792861 L38.5,107.431629 Z M114,40.0278308 L115,40.5683714 L115,40 L114.021671,40 L114,40.0128853 L114,40.0278308 Z M133.5,49.4316286 L150.986834,39.9792861 L133.5,29.5817093 L116.013166,39.9792861 L133.5,49.4316286 Z M209.5,78.4316286 L226.986834,68.9792861 L209.5,58.5817093 L192.013166,68.9792861 L209.5,78.4316286 Z M190.5,136.431629 L207.986834,126.979286 L190.5,116.581709 L173.013166,126.979286 L190.5,136.431629 Z M171.5,21.4316286 L188.986834,11.9792861 L171.5,1.58170928 L154.013166,11.9792861 L171.5,21.4316286 Z M152.5,107.431629 L169.986834,97.9792861 L152.5,87.5817093 L135.013166,97.9792861 L152.5,107.431629 Z M229,40.5683714 L229,40 L228.021671,40 L228,40.0128853 L228,40.0278308 L229,40.5683714 Z M247.5,49.4316286 L264.986834,39.9792861 L247.5,29.5817093 L230.013166,39.9792861 L247.5,49.4316286 Z M323.5,78.4316286 L340.986834,68.9792861 L323.5,58.5817093 L306.013166,68.9792861 L323.5,78.4316286 Z M304.5,136.431629 L321.986834,126.979286 L304.5,116.581709 L287.013166,126.979286 L304.5,136.431629 Z M285.5,21.4316286 L302.986834,11.9792861 L285.5,1.58170928 L268.013166,11.9792861 L285.5,21.4316286 Z M266.5,107.431629 L283.986834,97.9792861 L266.5,87.5817093 L249.013166,97.9792861 L266.5,107.431629 Z" id="Combined-Shape" fill="#0084AD" fill-rule="nonzero"></path></g></svg>